# xmcd CD database file
#
# Track frame offsets:
#	150
#	12792
#	23702
#	35997
#	46095
#
# Disc length: 805 seconds
#
# Revision: 0
# Processed by: cddbd v1.5.1PL2 Copyright (c) Steve Scherf et al.
# Submitted via: CDex 1.51
#
DISCID=33032305
DTITLE=Various Artist - NEW SCHOOL OF SKA! 3
DYEAR=1999
DGENRE=Ska Punk
TTITLE0=CHANGE UP - LIFE
TTITLE1=SPOOL - NO FUN NO 60P
TTITLE2=HECTIC TOES - ミサイル
TTITLE3=PLANKTON SOUP - I'm perfect
TTITLE4=BEE'S KNEES - SUNNY SKA
EXTD=YEAR: 1999
EXTT0=
EXTT1=
EXTT2=
EXTT3=
EXTT4=
PLAYORDER=
